<svg xmlns="http://www.w3.org/2000/svg" width="109.17" height="32"><path d="M101.25 0c.42.05.85.09 1.27.16a10.61 10.61 0 0 1 3.18.89 5.46 5.46 0 0 1 2.81 3.61 12.49 12.49 0 0 1 .34 3.85v1.1h-5.76v-.32c0-.81 0-1.63-.07-2.44a2.4 2.4 0 0 0-2-2.23 3 3 0 0 0-2.91 1 3.63 3.63 0 0 0-.63 1.74 5.92 5.92 0 0 0 .31 3.17 3.6 3.6 0 0 0 2 2.1c1 .46 2.1.85 3.17 1.23a11 11 0 0 1 4 2.33 6.39 6.39 0 0 1 1.84 3.48h-6.7a1.37 1.37 0 0 1-.59-.16c-1.59-.73-3.16-1.5-4.76-2.22a10 10 0 0 1-3-1.89 7.09 7.09 0 0 1-2.06-4.17 15.79 15.79 0 0 1 0-4.9 7.35 7.35 0 0 1 1.92-4.16 6.24 6.24 0 0 1 3.33-1.7c.88-.18 1.78-.28 2.68-.42h.22ZM8.53 0 7.21.16a11.13 11.13 0 0 0-2.49.58A6.12 6.12 0 0 0 1 4.67a15.48 15.48 0 0 0-.84 4.41C.09 10.79.08 12.49 0 14.19v5.39a1.5 1.5 0 0 0 .29.06h5.82V11.44a24.37 24.37 0 0 1 .27-3.82 7.09 7.09 0 0 1 .27-1.12 2.71 2.71 0 0 1 3-1.88 3 3 0 0 1 2.72 2.54c.09.7.14 1.4.22 2.1 0 .53.1 1.05.16 1.57h5.54a.45.45 0 0 0 0-.08c-.05-.82-.09-1.63-.14-2.44a16.41 16.41 0 0 0-.5-3.49 5.66 5.66 0 0 0-2.3-3.41A9.28 9.28 0 0 0 11.62.16C11.18.09 10.74.05 10.3 0Zm1.31 32h.22c1-.14 2.06-.21 3.06-.43a5.65 5.65 0 0 0 4.51-4.26 20.37 20.37 0 0 0 .63-5.92c0-.2-.12-.18-.25-.18h-5.34v.38a15.53 15.53 0 0 1-.35 3.73 2.39 2.39 0 0 1-2 2 7.26 7.26 0 0 1-1.32.07 2.21 2.21 0 0 1-2.36-1.79c0-.1-.06-.2-.08-.3a16.9 16.9 0 0 1-.47-3.89c0-.21-.06-.27-.27-.27H.08c0 .67.08 1.31.13 1.94a17.91 17.91 0 0 0 .79 4.2 5.92 5.92 0 0 0 3 3.6 10.72 10.72 0 0 0 3.8 1c.36.05.72.07 1.07.11Zm99.33-9.94v-.6c0-.2-.06-.3-.3-.3h-5.71c.06.32.13.6.16.89a14.33 14.33 0 0 1 0 3 2.39 2.39 0 0 1-1.64 2.15 4.1 4.1 0 0 1-1.67.19 2.54 2.54 0 0 1-2.51-2.1 14.08 14.08 0 0 1-.25-3.24v-.89h-5.89a1.91 1.91 0 0 0 0 .24c.1 1.62.17 3.24.31 4.86a5.67 5.67 0 0 0 4.27 5.11 16 16 0 0 0 7.78.19 6.2 6.2 0 0 0 4.28-3.12 9.53 9.53 0 0 0 1-3.29c.07-.48.11-.95.16-1.43Zm-43.9-2.67c0-1.22.1-2.44.07-3.65 0-2.07-.13-4.13-.25-6.2a15.67 15.67 0 0 0-.8-4.22 6.33 6.33 0 0 0-2.36-3.39A8.27 8.27 0 0 0 57.28.58H47.19c-.25 0-.3.1-.3.33v18.71H53V5.35h3.23a2.34 2.34 0 0 1 2.21 1.41 8.12 8.12 0 0 1 .74 2.94c.07.83.09 1.66.09 2.49V19.63h6a2.32 2.32 0 0 0 0-.24Zm-23.74-.06v-7.91a35.21 35.21 0 0 0-.45-5 9.92 9.92 0 0 0-1-3A5.89 5.89 0 0 0 36.3.56a15.67 15.67 0 0 0-7.93-.08 6.22 6.22 0 0 0-4.72 4.45 16.64 16.64 0 0 0-.72 4.14c-.06 1.16-.08 2.33-.1 3.5v7.05h6.1v-8.74a19 19 0 0 1 .51-4.45A2 2 0 0 1 30.8 4.9a5.37 5.37 0 0 1 1.11-.24 2.84 2.84 0 0 1 2.41.7 3 3 0 0 1 .85 2.05c.11 1.91.2 3.83.24 5.74.05 2.07 0 4.14 0 6.21 0 .23.07.29.3.29h5.79Zm44.66.07c-.12-.63-.25-1.25-.37-1.88-.59-3.08-1.18-6.16-1.79-9.25-.48-2.48-1-5-1.49-7.45 0-.17-.1-.22-.26-.22h-8.13c-.18 0-.23.06-.27.24-.29 1.5-.59 3-.89 4.49q-1.24 6.28-2.5 12.58c-.12.56-.23 1.13-.34 1.71h5.47c.17 0 .21-.08.23-.22.05-.34.11-.68.17-1 .42-2.39.83-4.78 1.25-7.17.27-1.53.53-3.06.8-4.59a.83.83 0 0 1 .08-.22.35.35 0 0 1 .13.22c.3 1.95.6 3.9.92 5.84.38 2.31.79 4.6 1.18 6.91 0 .19.11.25.31.25h5.52c-.01-.11-.01-.17-.02-.24ZM73.88 31.15c.35-2.07.71-4.13 1.06-6.2 0-.21.09-.28.31-.28h5.91c.11.64.21 1.25.31 1.86.27 1.58.54 3.15.8 4.72 0 .13.06.19.2.19h5.2a5.42 5.42 0 0 0 .77-.1c-.16-.86-.32-1.67-.47-2.49-.46-2.46-.93-4.92-1.38-7.38 0-.24-.14-.3-.38-.3H70.09c-.17 0-.26 0-.3.23-.57 2.92-1.16 5.83-1.74 8.75-.08.4-.15.8-.23 1.22h6c.02-.09.05-.15.06-.22Zm-26.65.29h9.11a17.93 17.93 0 0 0 2.83-.25 6 6 0 0 0 4.4-2.9 10.12 10.12 0 0 0 1-2.66 22.51 22.51 0 0 0 .58-4.17c0-.23 0-.28-.26-.28h-5.7a11.72 11.72 0 0 1-.52 3.4A2.86 2.86 0 0 1 56 26.81c-.92.07-1.85 0-2.77.05-.25 0-.31-.07-.31-.31v-5.37h-6v10.26ZM23 22.86a20.79 20.79 0 0 0 .61 3.91 6.15 6.15 0 0 0 4.85 4.75 16.6 16.6 0 0 0 7.12.09 6.62 6.62 0 0 0 3.6-1.85 7 7 0 0 0 1.72-3.28 21.45 21.45 0 0 0 .56-4.06c0-.41 0-.82.06-1.24h-6c0 .61-.05 1.21-.13 1.79-.12.89-.26 1.78-.46 2.66A2.05 2.05 0 0 1 33 27.34a6.48 6.48 0 0 1-1.46 0 2.07 2.07 0 0 1-2.09-1.8c-.22-1-.34-2-.48-3-.06-.44 0-.89-.07-1.35h-6c-.01.57.03 1.12.1 1.67Z" fill="#ef4444"/></svg>