<svg xmlns="http://www.w3.org/2000/svg" width="18.35" height="32"><path d="M8.53 0 7.21.16a11.13 11.13 0 0 0-2.49.58A6.12 6.12 0 0 0 1 4.67a15.48 15.48 0 0 0-.84 4.41C.09 10.79.08 12.49 0 14.19v5.39a1.5 1.5 0 0 0 .29.06h5.82V11.44a24.37 24.37 0 0 1 .27-3.82 7.09 7.09 0 0 1 .27-1.12 2.71 2.71 0 0 1 3-1.88 3 3 0 0 1 2.72 2.54c.09.7.14 1.4.22 2.1 0 .53.1 1.05.16 1.57h5.54a.45.45 0 0 0 0-.08c-.05-.82-.09-1.63-.14-2.44a16.41 16.41 0 0 0-.5-3.49 5.66 5.66 0 0 0-2.3-3.41A9.28 9.28 0 0 0 11.62.16C11.18.09 10.74.05 10.3 0Zm1.31 32h.22c1-.14 2.06-.21 3.06-.43a5.65 5.65 0 0 0 4.51-4.26 20.37 20.37 0 0 0 .63-5.92c0-.2-.12-.18-.25-.18h-5.34v.38a15.53 15.53 0 0 1-.35 3.73 2.39 2.39 0 0 1-2 2 7.26 7.26 0 0 1-1.32.07 2.21 2.21 0 0 1-2.36-1.79c0-.1-.06-.2-.08-.3a16.9 16.9 0 0 1-.47-3.89c0-.21-.06-.27-.27-.27H.08c0 .67.08 1.31.13 1.94a17.91 17.91 0 0 0 .79 4.2 5.92 5.92 0 0 0 3 3.6 10.72 10.72 0 0 0 3.8 1c.36.05.72.07 1.07.11Z" fill="#ef4444"/></svg>